<?xml version="1.0" encoding="UTF-8"?>
<svg id="Capa_2" data-name="Capa 2" xmlns="http://www.w3.org/2000/svg" viewBox="0 0 1684.09 1891.95">
  <defs>
    <style>
      .cls-1 {
        fill: #1d1d1b;
      }

      .cls-2 {
        fill: #fff;
      }
    </style>
  </defs>
  <g id="Capa_1-2" data-name="Capa 1">
    <path class="cls-1" d="M1428.27,246.48C1257.74,82.18,1013.48,0,695.48,0H155.97C69.83,0,0,69.83,0,155.97v1580.02c0,86.14,69.83,155.97,155.97,155.97h555.52c312.66,0,552.91-81.7,720.8-245.16,167.86-163.43,251.81-396.16,251.81-698.15s-85.3-537.84-255.83-702.17Z"/>
    <path class="cls-2" d="M1169.75,1104.5l-436.67,333.34c-118.63,90.56-289.62,5.97-289.62-143.28v-639.31c0-82.07,55.45-153.79,134.88-174.45l223.7-58.18c78.12-20.32,160.22,13.77,200.97,83.45l212.97,364.15c45.95,78.56,26.12,179.05-46.22,234.27Z"/>
  </g>
</svg>