<?xml version="1.0" encoding="UTF-8"?>
<svg id="Capa_2" data-name="Capa 2" xmlns="http://www.w3.org/2000/svg" viewBox="0 0 1333.24 1497.79">
  <defs>
    <style>
      .cls-1 {
        fill: #1d1d1b;
      }
    </style>
  </defs>
  <g id="Capa_1-2" data-name="Capa 1">
    <g>
      <path class="cls-1" d="M35.88,265.62l426.43,135.94c35.93,11.45,74.33-8.45,85.68-44.41l100.65-318.92c4.48-14.19,12.26-25.11,21.88-32.9-38.39-3.55-78.36-5.33-119.94-5.33H0v263.69c11.02-2.46,23.17-2.12,35.88,1.93Z"/>
      <path class="cls-1" d="M781.14,49.47l60.29,439.15c5.13,37.33,39.58,63.42,76.91,58.22l383.72-53.43c-32.19-119.81-89.31-219.24-171.34-298.29-92.8-89.41-213.18-148.1-361.14-176.06,5.82,8.36,9.93,18.51,11.57,30.4Z"/>
      <path class="cls-1" d="M260,684.44L0,413.18v789.36l268.78-435.14c16.32-26.42,12.71-60.54-8.78-82.96Z"/>
      <path class="cls-1" d="M618.28,1173.51c-19.18-13.37-43.88-15.97-65.43-6.88L31.89,1386.23c-10.89,4.59-21.69,6.2-31.89,5.43v106.13h563.26c158.84,0,294.06-26.64,405.7-79.92l-350.68-244.37Z"/>
      <path class="cls-1" d="M1032.35,845.22c-25.41,17.52-35.86,49.93-25.49,79l133.23,373.38c128.76-129.05,193.16-311.25,193.16-546.58,0-37.98-1.69-74.58-5.06-109.8l-295.84,204.02Z"/>
    </g>
  </g>
</svg>